# xmcd
# Track frame offsets:
# 150
# 21715
# 50028
# 73463
# 96654
# 118320
# 135117
# 154473
# 173564
# 204187
# 220513
# 246785
# 270107
# 295506
#
# Disc length: 4134 seconds
# Revision: 0
# Processed by: cddbd v1.5.2PL0 Copyright (c) Steve Scherf et al.
# Submitted via: VisiTrax 2.10.0.248 - For more info visit www.synapsa.com
#
DISCID=d010240e
DTITLE=Big James - Thank God I Got The Blues
DYEAR=2007
DGENRE=Blues
TTITLE0=thank god i got theblues
TTITLE1=i'm done this time
TTITLE2=don't take your coat off
TTITLE3=make it do what it do
TTITLE4=in the wrong
TTITLE5=awesome
TTITLE6=forever and ever
TTITLE7=trying to live my life without you
TTITLE8=walkin the back streets
TTITLE9=last heart
TTITLE10=what a coincidence
TTITLE11=no mo
TTITLE12=what it is
TTITLE13=l t's blues
EXTD=
EXTT0=
EXTT1=
EXTT2=
EXTT3=
EXTT4=
EXTT5=
EXTT6=
EXTT7=
EXTT8=
EXTT9=
EXTT10=
EXTT11=
EXTT12=
EXTT13=
PLAYORDER=
